<?xml version="1.0" encoding="UTF-8"?>
<svg width="800px" height="712px" viewBox="0 0 800 712" version="1.1" xmlns="http://www.w3.org/2000/svg" xmlns:xlink="http://www.w3.org/1999/xlink">
    <title>Artboard</title>
    <g id="Artboard" stroke="none" stroke-width="1" fill="none" fill-rule="evenodd">
        <g id="linkedin-big-logo" transform="translate(48.000000, -1.000000)" fill="#DC1D66" fill-rule="nonzero">
            <path d="M95.0205358,0 C42.6651871,0 0.0383335015,42.6100425 0,94.9958937 C0,147.381745 42.6268536,190 95.0205358,190 C147.395051,190 190,147.381745 190,94.9958937 C190,42.6155176 147.392313,0 95.0205358,0 Z" id="Path"></path>
            <path d="M164.800752,228 L23.1992467,228 C16.4635664,228 11,233.504359 11,240.299187 L11,699.703553 C11,706.495641 16.4635664,712 23.1992467,712 L164.798034,712 C171.536433,712 177,706.492901 177,699.703553 L177,240.299187 C177.002717,233.501619 171.539151,228 164.800752,228 Z" id="Path"></path>
            <path d="M530.451508,223 C478.074216,223 432.046269,238.891556 403.959138,264.805331 L403.959138,240.692872 C403.959138,233.903715 398.436774,228.40395 391.625857,228.40395 L254.333281,228.40395 C247.522365,228.40395 242,233.903715 242,240.692872 L242,699.713815 C242,706.500235 247.522365,712 254.333281,712 L397.321311,712 C404.132227,712 409.654592,706.497498 409.654592,699.713815 L409.654592,472.613768 C409.654592,407.454284 421.682906,367.067012 481.711833,367.067012 C540.853335,367.138188 545.279469,410.446441 545.279469,476.506584 L545.279469,699.713815 C545.279469,706.500235 550.801834,712 557.615498,712 L700.669467,712 C707.477635,712 713,706.497498 713,699.713815 L713,447.920947 C713,343.200934 692.248548,223 530.451508,223 Z" id="Path"></path>
        </g>
    </g>
</svg>