<?xml version="1.0" encoding="UTF-8"?>
<svg width="800px" height="712px" viewBox="0 0 800 712" version="1.1" xmlns="http://www.w3.org/2000/svg" xmlns:xlink="http://www.w3.org/1999/xlink">
    <title>Artboard</title>
    <g id="Artboard" stroke="none" stroke-width="1" fill="none" fill-rule="evenodd">
        <g id="instagram-logo-svgrepo-com" transform="translate(60.000000, 17.000000)" fill="#DC1D66" fill-rule="nonzero">
            <path d="M491.616531,0 L187.375436,0 C84.0566833,0 0,84.0606996 0,187.379453 L0,491.620547 C0,594.943317 84.0566833,679 187.375436,679 L491.616531,679 C594.943317,679 679,594.9393 679,491.620547 L679,187.379453 C679,84.0606996 594.943317,0 491.616531,0 Z M618.759846,491.620547 C618.759846,561.724681 561.724681,618.755829 491.620547,618.755829 L187.375436,618.755829 C117.275319,618.755829 60.2441708,561.724681 60.2441708,491.620547 L60.2441708,187.379453 C60.2441708,117.279335 117.275319,60.2441708 187.375436,60.2441708 L491.616531,60.2441708 C561.720665,60.2441708 618.759846,117.279335 618.759846,187.379453 L618.759846,491.620547 L618.759846,491.620547 Z" id="Shape"></path>
            <path d="M339,165 C242.503547,165 164,243.505349 164,340.004017 C164,436.498669 242.503547,515 339,515 C435.496453,515 514,436.498669 514,340.004017 C514,243.505349 435.496453,165 339,165 Z M339,454.737041 C275.733581,454.737041 224.257558,403.267871 224.257558,340 C224.257558,276.728112 275.729564,225.254924 339,225.254924 C402.270436,225.254924 453.742442,276.728112 453.742442,340 C453.742442,403.267871 402.266419,454.737041 339,454.737041 Z" id="Shape"></path>
            <path d="M522,113 C510.44,113 499.084,117.68 490.92,125.88 C482.716,134.04 478,145.4 478,157 C478,168.564 482.72,179.92 490.92,188.12 C499.08,196.28 510.44,201 522,201 C533.6,201 544.92,196.28 553.12,188.12 C561.32,179.92 566,168.56 566,157 C566,145.4 561.32,134.04 553.12,125.88 C544.96,117.68 533.6,113 522,113 Z" id="Path"></path>
        </g>
    </g>
</svg>