<?xml version="1.0" encoding="UTF-8"?>
<svg width="800px" height="712px" viewBox="0 0 800 712" version="1.1" xmlns="http://www.w3.org/2000/svg" xmlns:xlink="http://www.w3.org/1999/xlink">
    <title>Artboard</title>
    <g id="Artboard" stroke="none" stroke-width="1" fill="none" fill-rule="evenodd">
        <g id="twitter" transform="translate(6.000000, 43.000000)" fill="#DC1D66" fill-rule="nonzero">
            <path d="M771.118255,74.5529499 C758.72336,80.0506923 745.979779,84.690685 732.958777,88.4576566 C748.374768,71.0226866 760.128285,50.5079628 767.303071,28.0588481 C768.911607,23.0268867 767.244532,17.5189633 763.108659,14.2279536 C758.977876,10.9343987 753.238556,10.5398848 748.690367,13.2353057 C721.03728,29.6369038 691.202998,41.4239616 659.920523,48.3165016 C628.408984,17.5240538 585.609692,0 541.364753,0 C447.970366,0 371.987369,75.983381 371.987369,169.378825 C371.987369,176.7346 372.453132,184.049652 373.374478,191.262894 C257.480938,181.08698 149.736978,124.121715 75.7493819,33.3606061 C73.1126035,30.125592 69.0505394,28.382095 64.8917594,28.7155229 C60.7304344,29.041315 56.9916047,31.3880365 54.8893083,34.9946573 C39.8830865,60.7449627 31.9498448,90.1960631 31.9498448,120.161304 C31.9498448,160.974406 46.5208454,199.697856 72.2599772,229.955801 C64.4336319,227.245108 56.8388955,223.857379 49.5902999,219.833337 C45.698761,217.667329 40.9495056,217.700417 37.0834183,219.917331 C33.2147858,222.134244 30.789255,226.211737 30.6874489,230.668471 C30.6696329,231.41932 30.6696329,232.170169 30.6696329,232.931199 C30.6696329,293.851784 63.4562932,348.6994 113.583081,378.593374 C109.276682,378.163227 104.972828,377.539641 100.696971,376.722615 C96.2887662,375.880137 91.7558488,377.425104 88.7831102,380.787381 C85.8052812,384.147112 84.820307,388.830374 86.1921445,393.106396 C104.746309,451.036311 152.516285,493.64636 210.265806,506.637321 C162.368572,536.638196 107.594336,552.352576 50.0942402,552.352576 C38.0963892,552.352576 26.029819,551.647542 14.2203093,550.250199 C8.35373178,549.5528 2.74421468,553.016887 0.746269612,558.596077 C-1.25167545,564.177813 0.8658918,570.400952 5.85693674,573.600333 C79.7249108,620.96491 165.137699,646 252.856395,646 C425.300688,646 533.176996,564.679227 593.306234,496.458862 C668.28644,411.394025 711.289345,298.799753 711.289345,187.549372 C711.289345,182.901744 711.21808,178.208301 711.075552,173.530129 C740.657865,151.241365 766.12721,124.266794 786.852391,93.2630907 C790.000745,88.5543762 789.659694,82.3312372 786.01249,77.9966746 C782.370376,73.6595668 776.300186,72.2571334 771.118255,74.5529499 Z" id="XMLID_827_"></path>
        </g>
    </g>
</svg>