<?xml version="1.0" encoding="UTF-8"?>
<svg width="24px" height="8px" viewBox="0 0 24 8" version="1.1" xmlns="http://www.w3.org/2000/svg" xmlns:xlink="http://www.w3.org/1999/xlink">
    <!-- Generator: Sketch 52.5 (67469) - http://www.bohemiancoding.com/sketch -->
    <title>“”</title>
    <desc>Created with Sketch.</desc>
    <g id="Symbols" stroke="none" stroke-width="1" fill="none" fill-rule="evenodd">
        <g id="quote-icon-orchid" transform="translate(-8.000000, -16.000000)" fill="#FFFFFF">
            <g id="Group-3">
                <path d="M13.1277533,17.4592834 C11.9647577,17.7198697 11.2246696,18.2931596 11.2246696,18.9446254 C11.2246696,19.2833876 11.3832599,19.465798 11.9118943,19.7785016 C12.6255507,20.1954397 12.9427313,20.7687296 12.9427313,21.6026059 C12.9427313,22.8534202 11.9118943,23.8436482 10.6167401,23.8436482 C9.11013216,23.8436482 8,22.5407166 8,20.7166124 C8,18.4495114 9.50660793,16.5472313 11.7268722,16 L13.1277533,17.4592834 Z M19.0748899,17.4592834 C17.938326,17.7198697 17.1982379,18.2931596 17.1982379,18.9446254 C17.1982379,19.2833876 17.3303965,19.4397394 17.8854626,19.7785016 C18.5726872,20.1954397 18.9162996,20.7687296 18.9162996,21.6026059 C18.9162996,22.8534202 17.8854626,23.8436482 16.5903084,23.8436482 C15.0572687,23.8436482 13.9735683,22.5407166 13.9735683,20.7166124 C13.9735683,18.4495114 15.4801762,16.5472313 17.6740088,16 L19.0748899,17.4592834 Z M26.0528634,19.3094463 C26.0528634,21.5504886 24.5462555,23.4527687 22.3259912,24 L20.9251101,22.5667752 C22.061674,22.2801303 22.8281938,21.7068404 22.8281938,21.0814332 C22.8281938,20.742671 22.6696035,20.5602606 22.1409692,20.247557 C21.4273128,19.8306189 21.1101322,19.257329 21.1101322,18.4234528 C21.1101322,17.1726384 22.1145374,16.1824104 23.4096916,16.1824104 C24.9427313,16.1824104 26.0528634,17.485342 26.0528634,19.3094463 Z M32,19.3094463 C32,21.5504886 30.5198238,23.4527687 28.2995595,24 L26.8986784,22.5667752 C28.0352423,22.2801303 28.7753304,21.7068404 28.7753304,21.0814332 C28.7753304,20.742671 28.6431718,20.5602606 28.1145374,20.247557 C27.4008811,19.8306189 27.0837004,19.257329 27.0837004,18.4234528 C27.0837004,17.1726384 28.0881057,16.1824104 29.3832599,16.1824104 C30.9162996,16.1824104 32,17.485342 32,19.3094463 Z" id="“”"></path>
            </g>
        </g>
    </g>
</svg>