<?xml version="1.0" encoding="UTF-8"?>
<svg width="907px" height="291px" viewBox="0 0 907 291" version="1.1" xmlns="http://www.w3.org/2000/svg" xmlns:xlink="http://www.w3.org/1999/xlink">
    <title>Group</title>
    <g id="Page-1" stroke="none" stroke-width="1" fill="none" fill-rule="evenodd">
        <g id="ethos-WilliamWhite-LandingPage-WorkingFile" transform="translate(-512.000000, -446.000000)" stroke="#000000" stroke-width="4">
            <g id="Group-12861" transform="translate(-0.000000, -0.050000)">
                <g id="Group" transform="translate(514.697300, 448.686600)">
                    <path d="M203.332,11.0462 C203.332,6.5262 199.483,2.6782 194.964,2.6782 L162.164,2.6782 C157.645,2.6782 153.963,6.5262 153.963,11.0462 L153.963,63.7612 C153.963,68.9492 151.453,71.4602 148.441,71.4602 C146.265,71.4602 144.592,70.1202 142.751,66.9412 L104.595,4.1842 C103.088,1.6742 100.578,0.0002 97.566,0.0002 C93.047,0.0002 89.366,3.6822 89.366,8.2002 L89.366,64.0962 C89.366,68.9492 86.855,71.4602 83.843,71.4602 C81.835,71.4602 79.827,69.9532 77.986,66.7742 L42.842,6.8612 C41.335,4.3522 38.658,2.6782 35.645,2.6782 L8.2,2.6782 C3.682,2.6782 -5.68434189e-14,6.5262 -5.68434189e-14,11.0462 C-5.68434189e-14,12.5522 0.502,13.8912 1.171,15.0622 L62.924,122.1672 C64.43,124.6772 67.108,126.3512 70.12,126.3512 C73.132,126.3512 75.81,124.6772 78.153,120.4932 L96.896,87.8602 C97.9,86.1872 99.741,85.1832 101.749,85.1832 C103.59,85.1832 105.432,86.0192 106.268,87.5252 L126.016,122.1672 C127.354,124.6772 130.199,126.3512 133.212,126.3512 C136.224,126.3512 139.069,124.6772 141.747,119.9912 L202.161,15.0622 C202.83,13.8912 203.332,12.5522 203.332,11.0462 Z" id="Stroke-12843"></path>
                    <path d="M213.3725,115.473 C213.3725,119.992 217.0545,123.673 221.5725,123.673 L251.6955,123.673 C256.2145,123.673 260.0635,119.992 260.0635,115.473 L260.0635,60.581 C260.0635,57.57 258.3905,54.892 255.8795,53.386 L235.4625,40.667 C233.7895,39.663 232.6175,37.822 232.6175,35.814 C232.6175,33.806 233.7895,31.964 235.4625,30.96 L255.8795,18.242 C258.3905,16.736 260.0635,14.058 260.0635,10.878 C260.0635,6.36 256.2145,2.678 251.6955,2.678 L221.5725,2.678 C217.0545,2.678 213.3725,6.36 213.3725,10.878 L213.3725,115.473 Z" id="Stroke-12844"></path>
                    <path d="M379.2163,115.473 L379.2163,93.55 C379.2163,89.032 375.5343,85.35 371.0163,85.35 C369.5093,85.35 368.0033,85.685 366.8323,86.354 L332.3583,106.436 C331.5213,106.939 330.8513,107.106 329.8473,107.106 C326.8353,107.106 324.3243,104.763 324.3243,101.75 L324.3243,10.878 C324.3243,6.36 320.4753,2.678 315.9573,2.678 L296.7123,2.678 C292.1933,2.678 288.5113,6.36 288.5113,10.878 L288.5113,115.473 C288.5113,119.992 292.1933,123.673 296.7123,123.673 L371.0163,123.673 C375.5343,123.673 379.2163,119.992 379.2163,115.473 Z" id="Stroke-12845"></path>
                    <path d="M483.3081,115.473 L483.3081,93.55 C483.3081,89.032 479.6261,85.35 475.1081,85.35 C473.6011,85.35 472.0951,85.685 470.9241,86.354 L436.4501,106.436 C435.6131,106.939 434.9431,107.106 433.9391,107.106 C430.9271,107.106 428.4161,104.763 428.4161,101.75 L428.4161,10.878 C428.4161,6.36 424.5671,2.678 420.0491,2.678 L400.8041,2.678 C396.2851,2.678 392.6031,6.36 392.6031,10.878 L392.6031,115.473 C392.6031,119.992 396.2851,123.673 400.8041,123.673 L475.1081,123.673 C479.6261,123.673 483.3081,119.992 483.3081,115.473 Z" id="Stroke-12846"></path>
                    <path d="M496.6953,115.473 C496.6953,119.992 500.3773,123.673 504.8953,123.673 L535.0183,123.673 C539.5373,123.673 543.3863,119.992 543.3863,115.473 L543.3863,60.581 C543.3863,57.57 541.7133,54.892 539.2023,53.386 L518.7853,40.667 C517.1123,39.663 515.9403,37.822 515.9403,35.814 C515.9403,33.806 517.1123,31.964 518.7853,30.96 L539.2023,18.242 C541.7133,16.736 543.3863,14.058 543.3863,10.878 C543.3863,6.36 539.5373,2.678 535.0183,2.678 L504.8953,2.678 C500.3773,2.678 496.6953,6.36 496.6953,10.878 L496.6953,115.473 Z" id="Stroke-12847"></path>
                    <path d="M685.2988,123.6732 C689.8178,123.6732 693.4988,119.9912 693.4988,115.4732 C693.4988,113.8002 693.1638,112.2932 692.4948,111.1222 L630.5748,4.0172 C629.2358,1.5072 626.3908,0.0002 623.3788,0.0002 C620.3658,0.0002 617.6888,1.5072 616.3498,4.0172 L554.4298,111.2892 C553.7598,112.4602 553.4258,113.8002 553.4258,115.4732 C553.4258,119.9912 557.1078,123.6732 561.6258,123.6732 L604.2998,123.6732 C608.8188,123.6732 612.5008,119.9912 612.5008,115.4732 C612.5008,113.8002 611.9988,112.4602 611.3288,111.2892 L591.2468,76.8152 C590.7448,75.8112 590.5778,74.6392 590.5778,73.4682 C590.5778,72.1292 591.5818,70.2882 593.2558,69.2842 L631.9138,47.1942 C632.7508,46.6922 633.5868,46.5252 634.5908,46.5252 C637.6038,46.5252 639.9458,49.0342 639.9458,52.0472 L639.9458,115.4732 C639.9458,119.9912 643.6278,123.6732 648.1468,123.6732 L685.2988,123.6732 Z" id="Stroke-12848"></path>
                    <path d="M901.8476,115.306 C901.8476,113.8 901.3456,112.46 900.6756,111.289 L838.9226,4.184 C837.4166,1.674 834.7396,0 831.7266,0 C828.7146,0 825.8686,1.674 824.5316,4.184 L805.9546,36.484 C803.7796,40.165 802.1056,41.169 800.0976,41.169 C798.2566,41.169 796.4156,40.332 794.4076,36.818 L775.6636,4.184 C774.3256,1.674 771.6476,0 768.6356,0 C765.6226,0 762.7786,1.674 761.4396,4.184 L699.6866,111.122 C699.0166,112.293 698.5146,113.8 698.5146,115.306 C698.5146,119.825 702.1966,123.673 706.7156,123.673 L739.5156,123.673 C744.0346,123.673 747.8836,119.825 747.8836,115.306 L747.8836,60.414 C747.8836,57.402 750.3936,54.892 753.4066,54.892 C755.5816,54.892 757.2556,56.231 758.2596,57.904 L797.0846,122.167 C798.5906,124.677 801.2686,126.351 804.2816,126.351 C808.7996,126.351 812.4816,122.669 812.4816,118.151 L812.4816,60.414 C812.4816,57.402 814.9926,54.892 818.0036,54.892 C820.0126,54.892 821.6856,56.064 822.6896,57.737 L859.0046,119.49 C860.5116,121.999 863.1896,123.673 866.2016,123.673 L893.4796,123.673 C897.9976,123.673 901.8476,119.825 901.8476,115.306 Z" id="Stroke-12849"></path>
                    <path d="M329.5962,170.9593 C329.5962,166.4403 325.7472,162.5923 321.2282,162.5923 L288.4282,162.5923 C283.9092,162.5923 280.2272,166.4403 280.2272,170.9593 L280.2272,223.6753 C280.2272,228.8623 277.7172,231.3733 274.7052,231.3733 C272.5292,231.3733 270.8562,230.0343 269.0152,226.8553 L230.8592,164.0983 C229.3522,161.5873 226.8422,159.9143 223.8302,159.9143 C219.3112,159.9143 215.6302,163.5963 215.6302,168.1143 L215.6302,224.0103 C215.6302,228.8623 213.1192,231.3733 210.1072,231.3733 C208.0992,231.3733 206.0912,229.8673 204.2502,226.6883 L169.1062,166.7753 C167.5992,164.2653 164.9222,162.5923 161.9092,162.5923 L134.4642,162.5923 C129.9462,162.5923 126.2642,166.4403 126.2642,170.9593 C126.2642,172.4663 126.7662,173.8043 127.4352,174.9763 L189.1882,282.0813 C190.6942,284.5913 193.3722,286.2653 196.3842,286.2653 C199.3962,286.2653 202.0742,284.5913 204.4172,280.4073 L223.1602,247.7733 C224.1642,246.1013 226.0052,245.0963 228.0132,245.0963 C229.8542,245.0963 231.6962,245.9333 232.5322,247.4383 L252.2802,282.0813 C253.6182,284.5913 256.4642,286.2653 259.4762,286.2653 C262.4882,286.2653 265.3332,284.5913 268.0112,279.9053 L328.4252,174.9763 C329.0942,173.8043 329.5962,172.4663 329.5962,170.9593 Z" id="Stroke-12850"></path>
                    <path d="M446.7417,278.0648 L446.7417,170.7928 C446.7417,166.2738 443.0597,162.5918 438.5417,162.5918 L419.2957,162.5918 C414.7777,162.5918 411.0957,166.2738 411.0957,170.7928 L411.0957,203.5928 C411.0957,206.6058 408.7527,209.1158 405.7407,209.1158 L367.0817,209.1158 C364.0697,209.1158 361.5597,206.6058 361.5597,203.5928 C361.5597,202.5888 361.7267,201.9188 362.2287,201.0838 L376.7887,175.1438 C377.4577,173.8038 377.9597,172.4658 377.9597,170.7928 C377.9597,166.2738 374.2787,162.5918 369.7597,162.5918 L347.8367,162.5918 C343.3187,162.5918 339.6367,166.2738 339.6367,170.7928 L339.6367,275.3868 C339.6367,279.9058 343.3187,283.5868 347.8367,283.5868 L367.0817,283.5868 C371.6007,283.5868 375.2827,279.9058 375.2827,275.3868 L375.2827,242.2518 C375.2827,239.2398 377.7927,236.8958 380.8047,236.8958 L400.0507,236.8958 C403.0627,236.8958 405.7407,238.5698 407.2467,241.0798 L431.3457,282.0818 C432.8517,284.5908 435.5297,286.2648 438.5417,286.2648 C443.0597,286.2648 446.7417,282.5838 446.7417,278.0648 Z" id="Stroke-12851"></path>
                    <path d="M475.1914,275.387 C475.1914,279.906 478.8734,283.587 483.3914,283.587 L513.5144,283.587 C518.0334,283.587 521.8824,279.906 521.8824,275.387 L521.8824,220.495 C521.8824,217.484 520.2094,214.806 517.6984,213.299 L497.2814,200.581 C495.6084,199.576 494.4364,197.736 494.4364,195.728 C494.4364,193.719 495.6084,191.878 497.2814,190.874 L517.6984,178.156 C520.2094,176.65 521.8824,173.972 521.8824,170.792 C521.8824,166.274 518.0334,162.592 513.5144,162.592 L483.3914,162.592 C478.8734,162.592 475.1914,166.274 475.1914,170.792 L475.1914,275.387 Z" id="Stroke-12852"></path>
                    <path d="M606.0586,188.5316 C606.0586,185.5186 608.4016,183.0096 611.4136,183.0096 C612.4176,183.0096 613.2546,183.3436 614.0916,183.8446 L637.6876,197.0666 C638.8596,197.7356 640.3656,198.2376 641.8716,198.2376 C646.3906,198.2376 650.0716,194.5556 650.0716,190.0376 L650.0716,170.7926 C650.0716,166.2736 646.3906,162.5926 641.8716,162.5926 L540.1216,162.5926 C535.6036,162.5926 531.9216,166.2736 531.9216,170.7926 C531.9216,173.8036 533.4276,176.4816 535.9376,177.8206 L566.0616,195.2256 C568.5716,196.7316 570.4126,199.2416 570.4126,202.4216 L570.4126,275.3866 C570.4126,279.9056 574.0946,283.5876 578.6126,283.5876 L597.8586,283.5876 C602.3766,283.5876 606.0586,279.9056 606.0586,275.3866 L606.0586,188.5316 Z" id="Stroke-12853"></path>
                    <path d="M697.4297,228.3607 C697.4297,225.3487 699.9397,222.8387 702.9527,222.8387 C703.9567,222.8387 704.9607,223.1737 705.7977,223.6747 L745.4597,246.4347 C746.7987,247.1047 748.1377,247.7737 749.8107,247.7737 C754.3297,247.7737 758.0117,244.0917 758.0117,239.5737 L758.0117,217.4837 C758.0117,212.9647 754.3297,209.2827 749.8107,209.2827 L702.9527,209.2827 C699.9397,209.2827 697.4297,206.6057 697.4297,203.5927 L697.4297,181.6707 C697.4297,178.6577 699.9397,176.1477 702.9527,176.1477 C703.9567,176.1477 704.9607,176.4817 705.7977,176.9837 L745.9617,200.0787 C747.1337,200.7487 748.4717,201.0837 749.8107,201.0837 C754.3297,201.0837 758.0117,197.2337 758.0117,192.7147 L758.0117,170.7927 C758.0117,166.2737 754.3297,162.5917 749.8107,162.5917 L669.9847,162.5917 C665.4657,162.5917 661.7837,166.2737 661.7837,170.7927 L661.7837,275.3867 C661.7837,279.9057 665.4657,283.5877 669.9847,283.5877 L749.8107,283.5877 C754.3297,283.5877 758.0117,279.9057 758.0117,275.3867 L758.0117,264.1737 C758.0117,259.6557 754.3297,255.9737 749.8107,255.9737 L702.9527,255.9737 C699.9397,255.9737 697.4297,253.4647 697.4297,250.4517 L697.4297,228.3607 Z" id="Stroke-12854"></path>
                </g>
            </g>
        </g>
    </g>
</svg>