<?xml version="1.0" encoding="UTF-8"?>
<svg width="640px" height="249px" viewBox="0 0 640 249" version="1.1" xmlns="http://www.w3.org/2000/svg" xmlns:xlink="http://www.w3.org/1999/xlink">
    <title>logo-helios-stroke</title>
    <g id="Page-1" stroke="none" stroke-width="1" fill="none" fill-rule="evenodd">
        <g id="logo-helios-stroke" transform="translate(2.000000, 2.000000)" fill="#FFFFFF" stroke="#FEFEFE" stroke-width="2.488">
            <path d="M42.613,140.655 L65.041,140.655 L65.041,241.26 L107.654,241.26 L107.654,2.883 L65.041,2.883 L65.041,93.877 L42.613,93.877 L42.613,2.883 L0,2.883 L0,241.26 L42.613,241.26 L42.613,140.655 Z M216.583,2.883 L216.583,44.856 L170.126,44.856 L170.126,96.76 L206.651,96.76 L206.651,139.694 L170.126,139.694 L170.126,198.327 L218.826,198.327 L218.826,241.26 L127.512,241.26 L127.512,2.883 L216.583,2.883 Z M234.839,2.883 L234.839,241.26 L322.628,241.26 L322.628,198.327 L277.452,198.327 L277.452,2.883 L234.839,2.883 Z M338.64,241.26 L381.253,241.26 L381.253,2.883 L338.64,2.883 L338.64,241.26 Z M511.969,186.793 L511.969,60.555 C511.969,24.03 498.512,0 461.025,0 L451.413,0 C414.567,0 400.149,24.03 400.149,60.876 L400.149,186.793 C400.149,224.279 418.091,244.785 451.734,244.785 L461.346,244.785 C493.385,244.785 511.969,221.716 511.969,186.793 Z M467.433,188.074 C467.433,195.443 465.19,202.172 456.54,202.172 C447.568,202.172 444.685,195.443 444.685,188.074 L444.685,57.351 C444.685,46.778 447.568,41.652 456.219,41.652 C463.588,41.652 467.433,46.778 467.433,57.351 L467.433,188.074 Z M586.616,0 C619.938,0 632.434,14.738 632.434,46.778 L632.434,78.818 L591.422,78.818 L591.422,49.021 C591.422,41.331 589.82,36.525 582.131,36.525 C574.762,36.525 572.839,41.331 572.839,49.341 L572.839,54.788 C572.839,66.002 575.402,73.691 585.976,85.546 L610.326,112.78 C631.793,137.131 636.278,153.151 636.278,173.977 L636.278,185.191 C636.278,221.075 619.938,244.144 584.374,244.144 L576.043,244.144 C543.683,244.144 527.342,226.843 527.342,194.803 L527.342,151.869 L569.315,151.869 L569.315,189.997 C569.315,199.609 572.839,204.415 580.208,204.415 C587.257,204.415 590.782,198.647 590.782,187.113 L590.782,182.627 C590.782,165.967 589.82,159.238 577.004,145.461 L552.334,118.227 C534.391,99.003 529.585,80.74 529.585,57.671 L529.585,47.419 C529.585,16.66 548.169,0 577.966,0 L586.616,0 Z" id="Stroke-1"></path>
        </g>
    </g>
</svg>