<?xml version="1.0" encoding="UTF-8"?>
<svg width="640px" height="249px" viewBox="0 0 640 249" version="1.1" xmlns="http://www.w3.org/2000/svg" xmlns:xlink="http://www.w3.org/1999/xlink">
    <title>Stroke 1</title>
    <g id="Page-1" stroke="none" stroke-width="1" fill="none" fill-rule="evenodd">
        <path d="M44.613,142.655 L67.041,142.655 L67.041,243.26 L109.654,243.26 L109.654,4.883 L67.041,4.883 L67.041,95.877 L44.613,95.877 L44.613,4.883 L2,4.883 L2,243.26 L44.613,243.26 L44.613,142.655 Z M218.583,4.883 L218.583,46.856 L172.126,46.856 L172.126,98.76 L208.651,98.76 L208.651,141.694 L172.126,141.694 L172.126,200.327 L220.826,200.327 L220.826,243.26 L129.512,243.26 L129.512,4.883 L218.583,4.883 Z M236.839,4.883 L236.839,243.26 L324.628,243.26 L324.628,200.327 L279.452,200.327 L279.452,4.883 L236.839,4.883 Z M340.64,243.26 L383.253,243.26 L383.253,4.883 L340.64,4.883 L340.64,243.26 Z M513.969,188.793 L513.969,62.555 C513.969,26.03 500.512,2 463.025,2 L453.413,2 C416.567,2 402.149,26.03 402.149,62.876 L402.149,188.793 C402.149,226.279 420.091,246.785 453.734,246.785 L463.346,246.785 C495.385,246.785 513.969,223.716 513.969,188.793 Z M469.433,190.074 C469.433,197.443 467.19,204.172 458.54,204.172 C449.568,204.172 446.685,197.443 446.685,190.074 L446.685,59.351 C446.685,48.778 449.568,43.652 458.219,43.652 C465.588,43.652 469.433,48.778 469.433,59.351 L469.433,190.074 Z M588.616,2 C621.938,2 634.434,16.738 634.434,48.778 L634.434,80.818 L593.422,80.818 L593.422,51.021 C593.422,43.331 591.82,38.525 584.131,38.525 C576.762,38.525 574.839,43.331 574.839,51.341 L574.839,56.788 C574.839,68.002 577.402,75.691 587.976,87.546 L612.326,114.78 C633.793,139.131 638.278,155.151 638.278,175.977 L638.278,187.191 C638.278,223.075 621.938,246.144 586.374,246.144 L578.043,246.144 C545.683,246.144 529.342,228.843 529.342,196.803 L529.342,153.869 L571.315,153.869 L571.315,191.997 C571.315,201.609 574.839,206.415 582.208,206.415 C589.257,206.415 592.782,200.647 592.782,189.113 L592.782,184.627 C592.782,167.967 591.82,161.238 579.004,147.461 L554.334,120.227 C536.391,101.003 531.585,82.74 531.585,59.671 L531.585,49.419 C531.585,18.66 550.169,2 579.966,2 L588.616,2 Z" id="Stroke-1" stroke="#FEFEFE" stroke-width="2.488"></path>
    </g>
</svg>