<?xml version="1.0" encoding="UTF-8"?>
<svg width="101px" height="28px" viewBox="0 0 101 28" version="1.1" xmlns="http://www.w3.org/2000/svg" xmlns:xlink="http://www.w3.org/1999/xlink">
    <title>Fill 7066</title>
    <g id="Page-1" stroke="none" stroke-width="1" fill="none" fill-rule="evenodd">
        <g id="ethos-WilliamWhite-LandingPage-WorkingFile" transform="translate(-1256.000000, -2592.000000)" fill="#FFFFFF">
            <g id="Group-7067" transform="translate(-0.000000, -0.050000)">
                <path d="M1356.113,2592.515 L1352.317,2592.515 C1352.006,2592.525 1351.74,2592.743 1351.671,2593.047 L1348.634,2613.623 C1348.571,2613.973 1348.805,2614.309 1349.155,2614.372 C1349.196,2614.379 1349.238,2614.383 1349.28,2614.38215 L1352.507,2614.38215 C1353.039,2614.388 1353.493,2613.998 1353.569,2613.471 L1356.758,2593.237 C1356.78,2592.86 1356.492,2592.537 1356.115,2592.515 C1356.114,2592.515 1356.114,2592.515 1356.113,2592.515 L1356.113,2592.515 Z M1342.181,2607.169 C1341.909,2609.274 1340.088,2610.832 1337.967,2610.775 C1337.007,2610.84 1336.07,2610.462 1335.423,2609.75 C1334.851,2608.992 1334.643,2608.019 1334.854,2607.093 C1335.067,2604.945 1336.871,2603.306 1339.03,2603.297 C1340.703,2603.18 1342.154,2604.441 1342.271,2606.114 C1342.295,2606.443 1342.264,2606.774 1342.181,2607.093 L1342.181,2607.169 Z M1347.419,2600.032 L1343.623,2600.032 C1343.294,2600.03 1343.016,2600.275 1342.978,2600.601 L1342.978,2601.664 L1342.712,2601.285 C1341.565,2600.084 1339.919,2599.493 1338.27,2599.69 C1333.984,2599.806 1330.422,2603.029 1329.88,2607.283 C1329.492,2609.331 1330.004,2611.447 1331.285,2613.091 C1332.485,2614.432 1334.235,2615.147 1336.03,2615.027 C1337.987,2615.045 1339.865,2614.264 1341.231,2612.864 L1341.231,2613.889 C1341.168,2614.239 1341.402,2614.575 1341.753,2614.638 C1341.794,2614.645 1341.835,2614.648 1341.877,2614.648 L1345.256,2614.648 C1345.788,2614.653 1346.242,2614.264 1346.318,2613.737 L1348.141,2600.563 C1348.183,2600.188 1347.914,2599.85 1347.539,2599.807 C1347.499,2599.803 1347.459,2599.802 1347.419,2599.804 L1347.419,2600.032 Z M1324.907,2600.032 C1324.452,2602.841 1322.326,2602.841 1320.238,2602.841 L1319.061,2602.841 L1319.896,2597.564 C1319.916,2597.229 1320.204,2596.974 1320.539,2596.994 C1320.54,2596.994 1320.541,2596.995 1320.541,2596.995 L1321.073,2596.995 C1322.478,2596.995 1323.844,2596.995 1324.528,2597.83 C1324.948,2598.439 1325.086,2599.2 1324.907,2599.918 L1324.907,2600.032 Z M1329.691,2594.641 C1328.184,2593.161 1326.098,2592.424 1323.996,2592.629 L1316.138,2592.629 C1315.605,2592.623 1315.151,2593.013 1315.075,2593.54 L1311.924,2613.623 C1311.861,2613.973 1312.094,2614.309 1312.445,2614.372 C1312.486,2614.379 1312.528,2614.383 1312.569,2614.38215 L1316.593,2614.38215 C1316.964,2614.384 1317.276,2614.105 1317.315,2613.737 L1318.226,2608.004 C1318.302,2607.477 1318.756,2607.088 1319.289,2607.093 L1321.794,2607.093 C1326.235,2607.561 1330.215,2604.34 1330.684,2599.899 C1330.697,2599.766 1330.708,2599.634 1330.716,2599.5 C1331.077,2597.808 1330.705,2596.043 1329.691,2594.641 L1329.691,2594.641 Z M1311.506,2599.804 L1307.71,2599.804 C1307.341,2599.799 1306.996,2599.986 1306.799,2600.298 L1301.598,2607.89 L1299.396,2600.488 C1299.249,2600.021 1298.822,2599.7 1298.333,2599.69 L1294.537,2599.69 C1294.159,2599.696 1293.858,2600.007 1293.86391,2600.385 C1293.865,2600.445 1293.874,2600.505 1293.891,2600.563 L1298.067,2612.864 L1294.271,2618.406 C1294.061,2618.694 1294.125,2619.098 1294.413,2619.307 C1294.526,2619.39 1294.663,2619.433 1294.802,2619.43115 L1298.599,2619.43115 C1298.959,2619.437 1299.299,2619.267 1299.51,2618.975 L1312.038,2600.715 C1312.186,2600.391 1312.043,2600.008 1311.719,2599.86 C1311.652,2599.829 1311.58,2599.81 1311.506,2599.804 L1311.506,2599.804 Z M1286.299,2607.169 C1285.993,2609.271 1284.17,2610.817 1282.047,2610.775 C1281.099,2610.834 1280.176,2610.456 1279.541,2609.75 C1278.961,2608.995 1278.739,2608.025 1278.934,2607.093 C1279.166,2604.939 1280.981,2603.304 1283.148,2603.297 C1284.101,2603.253 1285.022,2603.644 1285.653,2604.36 C1286.292,2605.145 1286.531,2606.183 1286.299,2607.169 L1286.299,2607.169 Z M1291.537,2599.918 L1287.741,2599.918 C1287.406,2599.896 1287.118,2600.15 1287.096,2600.485 C1287.096,2600.486 1287.096,2600.487 1287.096,2600.488 L1287.096,2601.55 L1286.83,2601.171 C1285.698,2599.971 1284.064,2599.379 1282.426,2599.577 C1278.127,2599.66 1274.547,2602.899 1274.036,2607.169 C1273.648,2609.217 1274.16,2611.333 1275.441,2612.977 C1276.629,2614.312 1278.365,2615.027 1280.149,2614.913 C1282.105,2614.932 1283.983,2614.15 1285.349,2612.749 L1285.349,2613.775 C1285.286,2614.125 1285.52,2614.461 1285.871,2614.524 C1285.912,2614.531 1285.953,2614.535 1285.995,2614.534 L1289.374,2614.534 C1289.906,2614.539 1290.36,2614.15 1290.436,2613.623 L1292.449,2600.677 C1292.636,2600.374 1292.541,2599.976 1292.238,2599.789 C1292.022,2599.656 1291.748,2599.662 1291.537,2599.804 L1291.537,2599.918 Z M1268.987,2599.918 C1268.57,2602.727 1266.406,2602.727 1264.356,2602.727 L1263.179,2602.727 L1263.976,2597.451 C1264.03,2597.132 1264.299,2596.894 1264.622,2596.881 L1265.191,2596.881 C1266.596,2596.881 1267.924,2596.881 1268.608,2597.716 C1269.062,2598.354 1269.201,2599.164 1268.987,2599.918 L1268.987,2599.918 Z M1273.809,2594.641 C1272.302,2593.161 1270.217,2592.424 1268.114,2592.629 L1260.256,2592.629 C1259.723,2592.623 1259.269,2593.013 1259.193,2593.54 L1256.004,2613.623 C1255.961,2613.998 1256.231,2614.336 1256.606,2614.378 C1256.62,2614.38 1256.635,2614.381 1256.649,2614.38202 L1260.446,2614.38202 C1260.918,2614.385 1261.336,2614.076 1261.471,2613.623 L1262.344,2608.156 C1262.42,2607.629 1262.874,2607.24 1263.407,2607.245 L1265.874,2607.245 C1270.292,2607.733 1274.269,2604.547 1274.757,2600.129 C1274.775,2599.971 1274.788,2599.811 1274.796,2599.652 C1275.23,2597.918 1274.868,2596.081 1273.809,2594.641 L1273.809,2594.641 Z" id="Fill-7066"></path>
            </g>
        </g>
    </g>
</svg>