<?xml version="1.0" encoding="UTF-8"?>
<svg width="88px" height="37px" viewBox="0 0 88 37" version="1.1" xmlns="http://www.w3.org/2000/svg" xmlns:xlink="http://www.w3.org/1999/xlink">
    <title>Fill 7058</title>
    <g id="Page-1" stroke="none" stroke-width="1" fill="none" fill-rule="evenodd">
        <g id="ethos-WilliamWhite-LandingPage-WorkingFile" transform="translate(-1430.000000, -2588.000000)" fill="#FFFFFF">
            <g id="Group-7067" transform="translate(-0.000000, -0.050000)">
                <path d="M1502.8617,2624.6176 C1506.8767,2624.6176 1508.7527,2623.0786 1510.3657,2618.4646 L1517.5697,2598.2416 L1513.3667,2598.2416 L1508.5267,2613.8496 L1503.6867,2598.2416 L1499.2977,2598.2416 L1506.2757,2617.4886 L1505.9007,2618.6516 C1505.6337,2620.3266 1504.1417,2621.5266 1502.4487,2621.4286 L1501.2487,2621.4286 L1501.2487,2624.5796 C1501.7627,2624.5826 1502.2777,2624.5446 1502.7867,2624.4676 L1502.8617,2624.6176 Z M1488.9797,2614.4876 C1486.7657,2614.4876 1485.2277,2613.4366 1485.2277,2611.8236 C1485.2277,2610.2096 1486.5787,2609.1976 1488.9797,2609.0466 L1493.5567,2608.7466 L1493.5567,2610.2476 C1493.3577,2612.6396 1491.3027,2614.4466 1488.9047,2614.3376 L1488.9797,2614.4876 Z M1487.8537,2617.6386 C1490.3367,2617.7176 1492.6607,2616.4186 1493.8947,2614.2626 L1493.8947,2617.4136 L1497.6467,2617.4136 L1497.6467,2604.2826 C1497.6467,2600.5306 1494.6077,2597.9786 1489.8797,2597.9786 C1486.1937,2597.6216 1482.8827,2600.2376 1482.3757,2603.9066 L1486.1277,2603.9066 C1486.6097,2602.2516 1488.1577,2601.1366 1489.8797,2601.2056 C1492.3937,2601.2056 1493.6317,2602.3686 1493.6317,2604.5446 L1493.6317,2606.0076 L1488.4917,2606.3076 C1483.7267,2606.6086 1480.9877,2608.5586 1480.9877,2611.9356 C1481.0877,2615.1466 1483.7697,2617.6686 1486.9807,2617.5686 C1487.2477,2617.5606 1487.5147,2617.5336 1487.7787,2617.4886 L1487.8537,2617.6386 Z M1465.8677,2594.4516 L1470.3697,2594.4516 C1473.0817,2594.0936 1475.5707,2596.0006 1475.9297,2598.7116 C1475.9727,2599.0406 1475.9837,2599.3736 1475.9607,2599.7046 C1476.1527,2602.4326 1474.0967,2604.8006 1471.3677,2604.9926 C1471.0227,2605.0176 1470.6757,2605.0056 1470.3327,2604.9576 L1465.7927,2604.9576 L1465.8677,2594.4516 Z M1461.7407,2591.0006 L1461.7407,2617.2636 L1465.8677,2617.2636 L1465.8677,2608.2216 L1471.5327,2608.2216 C1476.1467,2608.4736 1480.0917,2604.9386 1480.3447,2600.3246 C1480.3597,2600.0556 1480.3617,2599.7856 1480.3497,2599.5166 C1480.5837,2594.9646 1477.0827,2591.0836 1472.5307,2590.8496 C1472.2477,2590.8356 1471.9657,2590.8356 1471.6837,2590.8496 L1461.7407,2591.0006 Z M1448.0457,2595.7646 C1445.6827,2595.7646 1443.6937,2597.1156 1442.5687,2597.1156 C1441.4427,2597.1156 1439.7167,2595.8406 1437.8407,2595.8776 C1435.3717,2595.9266 1433.1137,2597.2836 1431.9127,2599.4416 C1429.9817,2604.2456 1430.6617,2609.7046 1433.7137,2613.8876 C1434.9147,2615.6506 1436.3777,2617.6386 1438.2537,2617.6386 C1440.1297,2617.6386 1440.7677,2616.4756 1442.9437,2616.4756 C1445.1197,2616.4756 1445.7577,2617.6386 1447.6707,2617.6016 C1449.5847,2617.5636 1450.8597,2615.8376 1452.0607,2614.0746 C1452.9237,2612.8316 1453.5947,2611.4656 1454.0487,2610.0226 C1451.7637,2608.9906 1450.2957,2606.7146 1450.2977,2604.2066 C1450.3317,2601.9886 1451.4907,2599.9396 1453.3737,2598.7666 C1452.1697,2597.0416 1450.2237,2595.9856 1448.1207,2595.9156 L1448.0457,2595.7646 Z M1446.5827,2593.4016 C1445.5637,2594.7216 1443.9737,2595.4746 1442.3057,2595.4276 C1442.2147,2593.8066 1442.7677,2592.2156 1443.8437,2591.0006 C1444.9207,2589.7516 1446.4407,2588.9706 1448.0837,2588.8246 C1448.1927,2590.4866 1447.6547,2592.1266 1446.5827,2593.4016 L1446.5827,2593.4016 Z" id="Fill-7058"></path>
            </g>
        </g>
    </g>
</svg>