<?xml version="1.0" encoding="utf-8"?>
<svg version="1.1" xmlns:xlink="http://www.w3.org/1999/xlink" width="24px" height="20px" xmlns="http://www.w3.org/2000/svg">
  <g transform="matrix(1 0 0 1 -821 -1791 )">
    <path d="M 21.16751269035533 3.1562500000000004  C 22.111675126903556 3.052083333333333  23.055837563451778 2.7916666666666634  24 2.3750000000000004  C 23.319796954314725 3.3958333333333313  22.497461928934012 4.265625  21.532994923857867 4.984375000000001  C 21.54314720812183 5.130208333333332  21.548223350253807 5.348958333333331  21.548223350253807 5.640624999999999  C 21.548223350253807 6.994791666666664  21.35532994923858 8.346354166666664  20.96954314720812 9.6953125  C 20.583756345177665 11.044270833333332  19.99746192893401 12.338541666666668  19.210659898477157 13.578125  C 18.423857868020306 14.817708333333332  17.487309644670052 15.9140625  16.401015228426395 16.8671875  C 15.314720812182742 17.8203125  14.00507614213198 18.580729166666668  12.472081218274113 19.1484375  C 10.939086294416244 19.716145833333332  9.299492385786804 20  7.553299492385786 20  C 4.802030456852792 20  2.284263959390863 19.244791666666668  0 17.734375  C 0.35532994923857886 17.776041666666668  0.7512690355329951 17.796875  1.1878172588832487 17.796875  C 3.4720812182741128 17.796875  5.50761421319797 17.078125  7.2944162436548226 15.640625  C 6.228426395939087 15.619791666666664  5.274111675126904 15.283854166666664  4.431472081218274 14.6328125  C 3.588832487309645 13.981770833333332  3.0101522842639596 13.151041666666664  2.6954314720812182 12.140625  C 3.030456852791878 12.192708333333332  3.3401015228426405 12.21875  3.624365482233503 12.21875  C 4.060913705583756 12.21875  4.49238578680203 12.161458333333332  4.918781725888325 12.046875  C 3.781725888324874 11.807291666666666  2.84010152284264 11.2265625  2.0939086294416245 10.3046875  C 1.3477157360406091 9.3828125  0.9746192893401018 8.3125  0.9746192893401014 7.093750000000001  L 0.9746192893401014 7.03125  C 1.6649746192893402 7.427083333333333  2.4060913705583755 7.640624999999998  3.1979695431472086 7.671874999999999  C 2.527918781725888 7.213541666666665  1.9949238578680202 6.614583333333332  1.5989847715736043 5.874999999999999  C 1.2030456852791878 5.135416666666663  1.0050761421319798 4.333333333333331  1.0050761421319798 3.4687500000000004  C 1.0050761421319798 2.5520833333333326  1.2284263959390864 1.7031250000000009  1.6751269035532994 0.9218750000000009  C 2.903553299492386 2.4739583333333326  4.398477157360407 3.716145833333333  6.159898477157361 4.6484375  C 7.921319796954315 5.580729166666667  9.807106598984772 6.098958333333333  11.81725888324873 6.203125  C 11.736040609137056 5.807291666666665  11.695431472081218 5.421874999999998  11.695431472081218 5.046875  C 11.695431472081218 3.6510416666666634  12.175126903553299 2.4609375  13.13451776649746 1.4765625000000004  C 14.093908629441623 0.4921875000000009  15.253807106598988 0  16.614213197969544 0  C 18.035532994923862 0  19.233502538071065 0.5312500000000009  20.208121827411166 1.5937500000000004  C 21.314720812182742 1.3749999999999996  22.355329949238577 0.9687500000000004  23.329949238578678 0.3750000000000009  C 22.954314720812185 1.5729166666666639  22.233502538071072 2.5  21.16751269035533 3.1562500000000004  Z " fill-rule="nonzero" fill="#ffffff" stroke="none" transform="matrix(1 0 0 1 821 1791 )" />
  </g>
</svg>