<?xml version="1.0" encoding="utf-8"?>
<svg version="1.1" xmlns:xlink="http://www.w3.org/1999/xlink" width="24px" height="21px" xmlns="http://www.w3.org/2000/svg">
  <g transform="matrix(1 0 0 1 -161 -1791 )">
    <path d="M 22.28125 12.803185096153847  C 22.360416666666666 12.72325721153846  22.4 12.62860576923077  22 12.519230769230768  L 22 2.019230769230769  C 22.4 1.9098557692307683  22.360416666666666 1.8152043269230753  22.28125 1.735276442307693  C 22.202083333333334 1.6553485576923057  22.108333333333334 1.6153846153846143  22 2  L 2 2  C 1.891666666666667 1.6153846153846143  1.797916666666667 1.6553485576923057  1.71875 1.735276442307693  C 1.6395833333333334 1.8152043269230753  1.6 1.9098557692307683  2 2.019230769230769  L 2 12.519230769230768  C 1.6 12.62860576923077  1.6395833333333334 12.72325721153846  1.71875 12.803185096153847  C 1.797916666666667 12.88311298076923  1.891666666666667 12.923076923076923  2 13  L 22 13  C 22.108333333333334 12.923076923076923  22.202083333333334 12.88311298076923  22.28125 12.803185096153847  Z M 23.412499999999998 0.5931490384615381  C 23.804166666666667 0.9885817307692302  24.000000000000007 1.463942307692307  24 2.019230769230769  L 24 15.75  C 24.000000000000007 16.305288461538463  23.804166666666667 16.780649038461537  23.412499999999998 17.17608173076923  C 23.020833333333336 17.57151442307692  22.55 17.76923076923077  22 17.76923076923077  L 15.2 17.76923076923077  C 15.2 18.080528846153847  15.26666666666667 18.40655048076923  15.400000000000002 18.747295673076923  C 15.533333333333335 19.088040865384613  15.66666666666667 19.38671875  15.8 19.643329326923077  C 15.933333333333335 19.899939903846153  16 20.082932692307693  16 20.192307692307693  C 16 20.411057692307693  15.920833333333334 20.600360576923077  15.7625 20.760216346153847  C 15.604166666666668 20.920072115384617  15.416666666666668 21  15.2 21  L 8.799999999999999 21  C 8.583333333333336 21  8.395833333333336 20.920072115384617  8.237499999999999 20.760216346153847  C 8.079166666666666 20.600360576923077  8 20.411057692307693  8 20.192307692307693  C 8 20.074519230769234  8.066666666666666 19.889423076923077  8.2 19.63701923076923  C 8.333333333333334 19.384615384615387  8.466666666666667 19.090144230769234  8.6 18.75360576923077  C 8.733333333333334 18.417067307692307  8.799999999999999 18.088942307692307  8.799999999999999 17.76923076923077  L 2 17.76923076923077  C 1.45 17.76923076923077  0.9791666666666669 17.57151442307692  0.5875 17.17608173076923  C 0.19583333333333336 16.780649038461537  0 16.305288461538463  0 15.75  L 0 2.019230769230769  C 0 1.463942307692307  0.19583333333333336 0.9885817307692302  0.5875 0.5931490384615381  C 0.9791666666666669 0.19771634615384603  1.45 0  2 0  L 22 0  C 22.55 0  23.020833333333336 0.19771634615384603  23.412499999999998 0.5931490384615381  Z " fill-rule="nonzero" fill="#ffffff" stroke="none" transform="matrix(1 0 0 1 161 1791 )" />
  </g>
</svg>