<?xml version="1.0" encoding="UTF-8"?>
<svg width="120px" height="48px" viewBox="0 0 120 48" version="1.1" xmlns="http://www.w3.org/2000/svg" xmlns:xlink="http://www.w3.org/1999/xlink">
    <!-- Generator: Sketch 52.5 (67469) - http://www.bohemiancoding.com/sketch -->
    <title>quietly-logo-dark</title>
    <desc>Created with Sketch.</desc>
    <g id="Symbols" stroke="none" stroke-width="1" fill="none" fill-rule="evenodd">
        <g id="navigation-home" fill="#FFFFFF">
            <g id="navigation">
                <g id="quietly-logo-white">
                    <g id="quietly-logo-dark">
                        <path d="M47.7018634,23.8509317 C47.7018634,23.3649689 47.6247205,22.8793789 47.4719255,22.5104348 L41.5017391,8.09552795 C41.3489441,7.72658385 41.0582609,7.32931677 40.7154037,6.98571429 C40.3725466,6.64285714 39.9745342,6.35291925 39.6063354,6.20049689 L25.1914286,0.228819876 C24.8224845,0.0760248447 24.3361491,0 23.8509317,0 L23.8509317,1.57118012 C24.2012422,1.57118012 24.4673292,1.63006211 24.5895652,1.68111801 L39.004472,7.65204969 C39.1803727,7.72546584 39.4058385,7.89875776 39.604472,8.0973913 C39.8031056,8.29639752 39.9771429,8.52111801 40.0486957,8.6973913 L46.0207453,23.1122981 C46.0930435,23.2885714 46.1295652,23.5706832 46.1295652,23.8513043 C46.1295652,24.1326708 46.0934161,24.4140373 46.0207453,24.5899379 L40.048323,39.0055901 C39.9775155,39.1814907 39.8023602,39.4062112 39.6040994,39.6055901 L40.7157764,40.7161491 C41.0586335,40.3732919 41.3485714,39.9752795 41.5009938,39.6070807 L47.4719255,25.1910559 C47.6247205,24.8228571 47.7014907,24.3376398 47.7014907,23.8513043 L47.7018634,23.8509317 Z M39.004472,40.0501863 L24.5895652,46.0203727 C24.4677019,46.0714286 24.2012422,46.1306832 23.8509317,46.1306832 C23.5006211,46.1306832 23.2341615,46.0710559 23.1119255,46.0207453 L8.69590062,40.0498137 C8.52074534,39.9771429 8.2952795,39.8038509 8.09701863,39.6048447 C7.89726708,39.4054658 7.72434783,39.1807453 7.65130435,39.0048447 L1.68074534,24.5895652 C1.60695652,24.4136646 1.57192547,24.1326708 1.57192547,23.8509317 L0,23.8509317 C0,24.3368944 0.0760248447,24.8224845 0.229192547,25.1910559 L6.20049689,39.6067081 C6.35217391,39.9749068 6.64173913,40.3725466 6.98571429,40.7161491 L7.19440994,40.5074534 L6.98571429,40.7161491 C7.32857143,41.0597516 7.72658385,41.3496894 8.09552795,41.5017391 L22.5104348,47.4730435 C22.8793789,47.6258385 23.3645963,47.7018634 23.8509317,47.7018634 C24.3361491,47.7018634 24.8224845,47.6254658 25.1914286,47.4730435 L39.6063354,41.5021118 C39.9745342,41.3493168 40.3721739,41.0601242 40.7157764,40.7157764 L39.604472,39.6052174 C39.4062112,39.8038509 39.1803727,39.9771429 39.004472,40.0501863 Z M1.68074534,23.1122981 L7.65093168,8.69664596 C7.7247205,8.52074534 7.89689441,8.29602484 8.09701863,8.09664596 C8.2952795,7.89838509 8.52,7.72509317 8.69590062,7.65167702 L23.1119255,1.68074534 C23.2341615,1.63043478 23.5006211,1.5715528 23.8509317,1.5715528 L23.8509317,0 C23.3642236,0 22.8790062,0.0767701863 22.5100621,0.228819876 L8.09515528,6.20012422 C7.72621118,6.35291925 7.3289441,6.6421118 6.98534161,6.98571429 C6.64173913,7.32931677 6.35180124,7.72732919 6.20012422,8.09515528 L0.229192547,22.5100621 C0.0763975155,22.8793789 0,23.3657143 0,23.8509317 L1.57192547,23.8509317 C1.57192547,23.5703106 1.60658385,23.2881988 1.68074534,23.1122981 Z M26.4231056,13.4906832 L21.2776398,13.4906832 C17.7913043,13.4906832 14.9385093,16.3438509 14.9385093,19.830559 L14.9385093,25.983354 C14.9385093,29.4700621 17.7913043,32.3224845 21.2776398,32.3224845 L24.568323,32.3224845 L21.2113043,28.9658385 C20.4454658,28.9486957 19.7243478,28.6378882 19.173913,28.0874534 C18.6063354,27.5202484 18.2944099,26.7730435 18.2944099,25.9829814 L18.2944099,19.8309317 C18.2944099,19.0408696 18.6063354,18.2940373 19.173913,17.7268323 C19.7403727,17.1603727 20.488323,16.8473292 21.2776398,16.8473292 L26.4231056,16.8473292 C27.2142857,16.8473292 27.9607453,17.1603727 28.5279503,17.7268323 C29.0944099,18.2940373 29.4063354,19.0404969 29.4063354,19.8309317 L29.4063354,25.9837267 C29.4063354,26.7737888 29.0940373,27.5206211 28.5279503,28.0878261 C28.0050932,28.6095652 27.3309317,28.9159006 26.610559,28.9606211 L26.610559,34.3457143 L28.9751553,36.7121739 L28.9751553,31.7824845 C31.2007453,30.7956522 32.763354,28.5626087 32.763354,25.9826087 L32.763354,19.8309317 C32.763354,16.3442236 29.9101863,13.4910559 26.4231056,13.4910559 L26.4231056,13.4906832 Z M68.3385093,33.2619876 L66.1419876,31.0650932 C64.9904348,31.9803727 63.5250932,32.4775155 62.0351553,32.4775155 C60.2828571,32.4775155 58.6091925,31.7973913 57.3797516,30.567205 C55.6796273,28.8670807 55.6524224,27.2195031 55.6524224,23.008323 C55.6524224,18.7971429 55.6796273,17.1491925 57.3797516,15.4490683 C58.6095652,14.2192547 60.2828571,13.5398758 62.0344099,13.5398758 C63.7874534,13.5398758 65.461118,14.2196273 66.691677,15.4490683 C68.3910559,17.1491925 68.4171429,18.7975155 68.4171429,23.0079503 C68.4171429,26.852795 68.3910559,28.5793789 67.0837267,30.122236 L69.2809938,32.3195031 L68.338882,33.2612422 L68.3385093,33.2619876 Z M65.5658385,16.233913 C64.624472,15.2925466 63.3693168,14.7954037 62.0344099,14.7954037 C60.7002484,14.7954037 59.4443478,15.2925466 58.503354,16.233913 C57.1691925,17.5680745 57.0648447,19.0065839 57.0648447,23.0090683 C57.0648447,27.0108075 57.1691925,28.4500621 58.503354,29.7842236 C59.4447205,30.7252174 60.7006211,31.2227329 62.0340373,31.2227329 C63.210559,31.2227329 64.3095652,30.8299379 65.1991304,30.123354 L62.5837267,27.508323 L63.5239752,26.5665839 L66.1140373,29.1559006 C66.9249689,27.9521739 67.0047205,26.3832298 67.0047205,23.0086957 C67.0047205,19.0062112 66.9003727,17.5677019 65.5647205,16.2335404 L65.5658385,16.233913 Z M79.2782609,32.4190062 L79.2782609,30.8295652 C78.4591304,31.9289441 77.1037267,32.4775155 75.5877019,32.4775155 C74.1745342,32.4775155 73.0229814,32.0593789 72.212795,31.2745342 C71.3754037,30.4632298 70.8778882,29.2602484 70.8778882,27.7691925 L70.8778882,19.7157764 L72.3126708,19.7157764 L72.3126708,27.5344099 C72.3126708,29.966087 73.5067081,31.3002484 75.7561491,31.3002484 C78.004472,31.3002484 79.2786335,29.913913 79.2786335,27.5336646 L79.2786335,19.7161491 L80.7122981,19.7161491 L80.7122981,32.4186335 L79.2786335,32.4186335 L79.2782609,32.4190062 Z M83.5796273,13.7742857 L85.2193789,13.7742857 L85.2193789,15.4140373 L83.5796273,15.4140373 L83.5796273,13.7742857 Z M83.7845963,19.7165217 L85.0144099,19.7165217 L85.0144099,32.4186335 L83.7845963,32.4186335 L83.7845963,19.7161491 L83.7845963,19.7165217 Z M88.8193789,26.2729193 C88.8193789,29.550559 90.2593789,31.2585093 92.9277019,31.2585093 C94.4176398,31.2585093 95.3340373,30.8217391 96.4058385,29.7491925 L97.3993789,30.5381366 C96.1185093,31.8201242 94.9412422,32.4760248 92.848323,32.4760248 C89.369441,32.4760248 87.4863354,30.2269565 87.4863354,26.0154037 C87.4863354,21.9614907 89.3347826,19.5559006 92.4987578,19.5559006 C95.6381366,19.5559006 97.5126708,21.8582609 97.5126708,25.7031056 L97.5126708,26.2725466 L88.8193789,26.2725466 L88.8193789,26.2729193 Z M95.8047205,22.8603727 C95.2554037,21.5522981 93.9730435,20.7376398 92.5352795,20.7376398 C91.0956522,20.7376398 89.8147826,21.5545342 89.2650932,22.8626087 C88.9513043,23.6470807 88.8722981,24.0197516 88.8197516,25.2488199 L96.2493168,25.2488199 C96.1960248,24.0190062 96.118882,23.6448447 95.8043478,22.86 L95.8047205,22.8603727 Z M103.286087,32.4193789 C101.299752,32.4193789 100.176894,30.9346584 100.176894,29.0254658 L100.176894,20.7409938 L98.5371429,20.7409938 L98.5371429,19.7168944 L100.176894,19.7168944 L100.176894,15.6178882 L101.610559,15.6178882 L101.610559,19.7161491 L104.479379,19.7161491 L104.479379,20.7402484 L101.610559,20.7402484 L101.610559,29.0508075 C101.610559,30.358882 102.188199,31.1899379 103.52087,31.1899379 L104.479379,31.1899379 L104.479379,32.4186335 L103.286832,32.4186335 L103.286087,32.4193789 Z M109.460124,32.4193789 C107.418634,32.4193789 106.323354,31.0129193 106.323354,29.0519255 L106.323354,13.773913 L107.757019,13.773913 L107.757019,29.0247205 C107.757019,30.4371429 108.204224,31.1899379 109.694907,31.1899379 L110.626584,31.1899379 L110.626584,32.4186335 L109.460124,32.4186335 L109.460124,32.4193789 Z M113.984348,35.7491925 C113.749565,36.4296894 113.488696,36.8634783 113.121988,37.1772671 C112.493292,37.7787578 111.57913,37.9509317 110.741739,37.9509317 L110.216273,37.9509317 L110.216273,36.9268323 L110.610559,36.9268323 C112.049068,36.9268323 112.441863,36.4162733 112.912174,35.1596273 L113.932174,32.3429814 L109.329689,19.7168944 L110.794286,19.7168944 L114.586211,30.7554037 L118.38,19.7168944 L119.843478,19.7168944 L113.983975,35.7491925 L113.984348,35.7491925 Z" id="Shape"></path>
                    </g>
                </g>
            </g>
        </g>
    </g>
</svg>