<?xml version="1.0" encoding="UTF-8"?>
<svg width="40px" height="40px" viewBox="0 0 40 40" version="1.1" xmlns="http://www.w3.org/2000/svg" xmlns:xlink="http://www.w3.org/1999/xlink">
    <!-- Generator: Sketch 52.5 (67469) - http://www.bohemiancoding.com/sketch -->
    <title>quietly-logo-dark</title>
    <desc>Created with Sketch.</desc>
    <g id="Symbols" stroke="none" stroke-width="1" fill="none" fill-rule="evenodd">
        <g id="footer-desktop-dark" transform="translate(-1.000000, -238.000000)" fill="#FFFFFF">
            <g id="footer-desktop">
                <g id="Group-7" transform="translate(1.000000, 238.000000)">
                    <g id="quietly-logomark-light">
                        <path d="M40,20 C40,19.5925 39.9353125,19.1853125 39.8071875,18.8759375 L34.8009375,6.7884375 C34.6728125,6.4790625 34.4290625,6.1459375 34.1415625,5.8578125 C33.8540625,5.5703125 33.5203125,5.3271875 33.2115625,5.199375 L21.1240625,0.191875 C20.8146875,0.06375 20.406875,0 20,0 L20,1.3175 C20.29375,1.3175 20.516875,1.366875 20.619375,1.4096875 L32.706875,6.4165625 C32.854375,6.478125 33.0434375,6.6234375 33.21,6.79 C33.3765625,6.956875 33.5225,7.1453125 33.5825,7.293125 L38.5903125,19.380625 C38.6509375,19.5284375 38.6815625,19.765 38.6815625,20.0003125 C38.6815625,20.23625 38.65125,20.4721875 38.5903125,20.6196875 L33.5821875,32.7078125 C33.5228125,32.8553125 33.3759375,33.04375 33.2096875,33.2109375 L34.141875,34.1421875 C34.429375,33.8546875 34.6725,33.5209375 34.8003125,33.2121875 L39.8071875,21.12375 C39.9353125,20.815 39.9996875,20.408125 39.9996875,20.0003125 L40,20 Z M32.706875,33.58375 L20.619375,38.59 C20.5171875,38.6328125 20.29375,38.6825 20,38.6825 C19.70625,38.6825 19.4828125,38.6325 19.3803125,38.5903125 L7.291875,33.5834375 C7.145,33.5225 6.9559375,33.3771875 6.7896875,33.2103125 C6.6221875,33.043125 6.4771875,32.8546875 6.4159375,32.7071875 L1.409375,20.619375 C1.3475,20.471875 1.318125,20.23625 1.318125,20 L0,20 C0,20.4075 0.06375,20.8146875 0.1921875,21.12375 L5.199375,33.211875 C5.3265625,33.520625 5.569375,33.8540625 5.8578125,34.1421875 L6.0328125,33.9671875 L5.8578125,34.1421875 C6.1453125,34.4303125 6.4790625,34.6734375 6.7884375,34.8009375 L18.8759375,39.808125 C19.1853125,39.93625 19.5921875,40 20,40 C20.406875,40 20.8146875,39.9359375 21.1240625,39.808125 L33.2115625,34.80125 C33.5203125,34.673125 33.85375,34.430625 34.141875,34.141875 L33.21,33.210625 C33.04375,33.3771875 32.854375,33.5225 32.706875,33.58375 Z M1.409375,19.380625 L6.415625,7.2925 C6.4775,7.145 6.621875,6.9565625 6.7896875,6.789375 C6.9559375,6.623125 7.144375,6.4778125 7.291875,6.41625 L19.3803125,1.409375 C19.4828125,1.3671875 19.70625,1.3178125 20,1.3178125 L20,0 C19.591875,0 19.185,0.064375 18.875625,0.191875 L6.788125,5.1990625 C6.47875,5.3271875 6.145625,5.5696875 5.8575,5.8578125 C5.569375,6.1459375 5.32625,6.4796875 5.1990625,6.788125 L0.1921875,18.875625 C0.0640625,19.1853125 0,19.593125 0,20 L1.318125,20 C1.318125,19.7646875 1.3471875,19.528125 1.409375,19.380625 Z M22.156875,11.3125 L17.8421875,11.3125 C14.91875,11.3125 12.5265625,13.705 12.5265625,16.62875 L12.5265625,21.788125 C12.5265625,24.711875 14.91875,27.10375 17.8421875,27.10375 L20.6015625,27.10375 L17.7865625,24.2890625 C17.144375,24.2746875 16.5396875,24.0140625 16.078125,23.5525 C15.6021875,23.076875 15.340625,22.4503125 15.340625,21.7878125 L15.340625,16.6290625 C15.340625,15.9665625 15.6021875,15.3403125 16.078125,14.8646875 C16.553125,14.3896875 17.1803125,14.1271875 17.8421875,14.1271875 L22.156875,14.1271875 C22.8203125,14.1271875 23.44625,14.3896875 23.921875,14.8646875 C24.396875,15.3403125 24.6584375,15.96625 24.6584375,16.6290625 L24.6584375,21.7884375 C24.6584375,22.4509375 24.3965625,23.0771875 23.921875,23.5528125 C23.4834375,23.9903125 22.918125,24.2471875 22.3140625,24.2846875 L22.3140625,28.8003125 L24.296875,30.7846875 L24.296875,26.6509375 C26.163125,25.8234375 27.4734375,23.9509375 27.4734375,21.7875 L27.4734375,16.6290625 C27.4734375,13.7053125 25.0809375,11.3128125 22.156875,11.3128125 L22.156875,11.3125 Z" id="Shape"></path>
                    </g>
                </g>
            </g>
        </g>
    </g>
</svg>